{"title":"Unlawful.Entry.1992.1080p.HDTV-BLUEBIRD","uid":13695693,"size":5968832895,"categoryP":"video","categoryS":"hd___movies","magnet":"?xt=urn:btih:bdae9d1c560a4292cae27aec78067c26dbbf0730&amp;dn=Unlawful.Entry.1992.1080p.HDTV-BLUEBIRD&amp;tr=udp%3A%2F%2Ftracker.leechers-paradise.org%3A6969&amp;tr=udp%3A%2F%2Fzer0day.ch%3A1337&amp;tr=udp%3A%2F%2Fopen.demonii.com%3A1337&amp;tr=udp%3A%2F%2Ftracker.coppersurfer.tk%3A6969&amp;tr=udp%3A%2F%2Fexodus.desync.com%3A6969","seeders":0,"leechers":1,"uploader":null,"files":1,"time":1456694559,"description":"SCREENS\n \nhttp://i.imgbox.com/m0l929ei.png\n \nhttp://i.imgbox.com/LKlbyKIh.png\n\n\nGeneral\n\nFormat                      : Matroska\nFormat version              : Version 4 / Version 2\nFile size                   : 5.56 GiB\nDuration                    : 1h 46mn\nOverall bit rate            : 7 449 Kbps\n\nVideo\n\nID                          : 1\nFormat                      : AVC\nFormat/Info                 : Advanced Video Codec\nFormat profile              :   \nFormat settings, CABAC      : Yes\nFormat settings, ReFrames   : 4 frames\nCodec ID                    : V_MPEG4/ISO/AVC\nDuration                    : 1h 46mn\nBit rate                    : 6 296 Kbps\nWidth                       : 1 920 pixels\nHeight                      : 1 080 pixels\nDisplay aspect ratio        : 16:9\nFrame rate mode             : Variable\nFrame rate                  : 50.000 fps\nOriginal frame rate         : 25.000 fps\nStandard                    : Component\nColor space                 : YUV\nChroma subsampling          : 4:2:0\nBit depth                   : 8 bits\nBits/(Pixel*Frame)          : 0.061\nStream size                 : 4.70 GiB (84%)\n\n\nAudio #5\n\nID                          : 6\nFormat                      : AC-3\nFormat/Info                 : Audio Coding 3\nMode extension              : CM (complete main)\nFormat settings, Endianness : Big\nCodec ID                    : A_AC3\nDuration                    : 1h 46mn\nBit rate mode               : Constant\nBit rate                    : 192 Kbps\nChannel(s)                  : 2 channels\nChannel positions           : Front: L R\nSampling rate               : 48.0 KHz\nFrame rate                  : 31.250 fps (1536 spf)\nCompression mode            : Lossy\nStream size                 : 147 MiB (3%)\nLanguage                    : English\nDefault                     : NoForced                      : No","torrent":{"xt":"urn:btih:bdae9d1c560a4292cae27aec78067c26dbbf0730","amp;dn":"Unlawful.Entry.1992.1080p.HDTV-BLUEBIRD","amp;tr":["udp%3A%2F%2Ftracker.leechers-paradise.org%3A6969","udp%3A%2F%2Fzer0day.ch%3A1337","udp%3A%2F%2Fopen.demonii.com%3A1337","udp%3A%2F%2Ftracker.coppersurfer.tk%3A6969","udp%3A%2F%2Fexodus.desync.com%3A6969"],"infoHash":"bdae9d1c560a4292cae27aec78067c26dbbf0730","infoHashBuffer":{"type":"Buffer","data":[189,174,157,28,86,10,66,146,202,226,122,236,120,6,124,38,219,191,7,48]},"announce":[],"urlList":[]}}